<?xml version="1.0" encoding="UTF-8" standalone="no"?>
<!DOCTYPE svg PUBLIC "-//W3C//DTD SVG 1.1//EN" "http://www.w3.org/Graphics/SVG/1.1/DTD/svg11.dtd">
<svg width="100%" height="100%" viewBox="0 0 50 50" version="1.1" xmlns="http://www.w3.org/2000/svg" xmlns:xlink="http://www.w3.org/1999/xlink" xml:space="preserve" xmlns:serif="http://www.serif.com/" style="fill-rule:evenodd;clip-rule:evenodd;stroke-linejoin:round;stroke-miterlimit:2;">
	<g id="Forma-1" serif:id="Forma 1" transform="matrix(1,0,0,1,-1139,-433.499)">
		<path d="M1183.19,435.341L1181.54,435.341C1181.58,435.205 1181.62,435.068 1181.62,434.917C1181.62,434.141 1180.98,433.51 1180.2,433.51C1179.41,433.51 1178.78,434.141 1178.78,434.917C1178.78,435.07 1178.82,435.205 1178.87,435.341L1173.43,435.341C1173.48,435.205 1173.52,435.068 1173.52,434.917C1173.52,434.141 1172.88,433.51 1172.1,433.51C1171.32,433.51 1170.68,434.141 1170.68,434.917C1170.68,435.07 1170.73,435.205 1170.77,435.341L1165.34,435.341C1165.38,435.205 1165.42,435.068 1165.42,434.917C1165.42,434.141 1164.79,433.51 1164,433.51C1163.22,433.51 1162.58,434.141 1162.58,434.917C1162.58,435.07 1162.63,435.205 1162.67,435.341L1157.24,435.341C1157.28,435.205 1157.32,435.068 1157.32,434.917C1157.32,434.141 1156.69,433.51 1155.9,433.51C1155.12,433.51 1154.49,434.141 1154.49,434.917C1154.49,435.07 1154.53,435.205 1154.57,435.341L1149.14,435.341C1149.18,435.205 1149.23,435.068 1149.23,434.917C1149.23,434.141 1148.59,433.51 1147.81,433.51C1147.02,433.51 1146.39,434.141 1146.39,434.917C1146.39,435.07 1146.43,435.205 1146.47,435.341L1144.81,435.341C1142.57,435.341 1140.75,437.147 1140.75,439.369L1140.75,479.459C1140.75,481.682 1142.57,483.488 1144.81,483.488L1178.61,483.488L1187.25,474.91L1187.25,439.369C1187.25,437.147 1185.43,435.341 1183.19,435.341ZM1185.04,474L1184.58,474.455L1181.1,474.455C1179.48,474.455 1178.15,475.771 1178.15,477.385L1178.15,480.835L1177.69,481.29L1144.81,481.29C1143.79,481.29 1142.96,480.469 1142.96,479.459L1142.96,451.694L1185.04,451.694L1185.04,474Z" style="fill:#FFD54F;fill-rule:nonzero;"/>
	</g>
</svg>
