<?xml version="1.0" encoding="UTF-8" standalone="no"?>
<!DOCTYPE svg PUBLIC "-//W3C//DTD SVG 1.1//EN" "http://www.w3.org/Graphics/SVG/1.1/DTD/svg11.dtd">
<svg width="100%" height="100%" viewBox="0 0 32 32" version="1.1" xmlns="http://www.w3.org/2000/svg" xmlns:xlink="http://www.w3.org/1999/xlink" xml:space="preserve" xmlns:serif="http://www.serif.com/" style="fill-rule:evenodd;clip-rule:evenodd;stroke-linejoin:round;stroke-miterlimit:2;">
    <g id="Forma-1" serif:id="Forma 1" transform="matrix(1,0,0,1,-1152.78,-373.843)">
        <path d="M1173.11,378.578L1173.11,377.711C1173.11,377.191 1173.45,376.844 1173.97,376.844C1174.49,376.844 1174.84,377.191 1174.84,377.711L1174.84,378.578L1178.31,378.578C1180.73,378.578 1182.64,380.484 1182.64,382.91L1182.64,398.508C1182.64,400.934 1180.73,402.841 1178.31,402.841L1159.25,402.841C1156.82,402.841 1154.92,400.934 1154.92,398.508L1154.92,382.91C1154.92,380.485 1156.82,378.579 1159.25,378.578L1162.71,378.578L1162.71,377.711C1162.71,377.191 1163.06,376.844 1163.58,376.844C1164.1,376.844 1164.45,377.191 1164.45,377.711L1164.45,378.578L1173.11,378.578ZM1178.31,401.108C1179.69,401.106 1180.9,399.893 1180.9,398.508L1180.9,387.243L1156.65,387.243L1156.65,398.508C1156.65,399.895 1157.86,401.108 1159.25,401.108L1178.31,401.108ZM1166.18,398.508C1166.7,398.508 1167.05,398.335 1167.39,397.988C1167.74,397.642 1167.91,397.122 1167.91,396.775C1167.91,396.428 1167.74,395.908 1167.39,395.562C1166.7,394.869 1165.66,394.869 1164.97,395.562C1164.62,395.908 1164.45,396.428 1164.45,396.775C1164.45,397.122 1164.62,397.642 1164.97,397.988C1165.31,398.335 1165.66,398.508 1166.18,398.508ZM1176.57,398.508C1177.09,398.508 1177.44,398.335 1177.79,397.988C1178.13,397.642 1178.31,397.122 1178.31,396.775C1178.31,396.428 1178.13,395.908 1177.79,395.562C1177.09,394.869 1176.05,394.869 1175.36,395.562C1175.01,395.908 1174.84,396.255 1174.84,396.775C1174.84,397.122 1175.01,397.642 1175.36,397.988C1175.71,398.335 1176.05,398.508 1176.57,398.508ZM1171.38,398.508C1171.89,398.508 1172.24,398.335 1172.59,397.988C1172.93,397.642 1173.11,397.295 1173.11,396.775C1173.11,396.255 1172.93,395.908 1172.59,395.562C1171.89,394.869 1170.86,394.869 1170.16,395.562C1169.82,395.908 1169.64,396.428 1169.64,396.775C1169.64,397.122 1169.82,397.642 1170.16,397.988C1170.51,398.335 1170.86,398.508 1171.38,398.508ZM1160.98,398.508C1161.5,398.508 1161.85,398.335 1162.19,397.988C1162.54,397.642 1162.71,397.122 1162.71,396.775C1162.71,396.428 1162.54,395.908 1162.19,395.562C1161.5,394.869 1160.46,394.869 1159.77,395.562C1159.42,395.908 1159.25,396.255 1159.25,396.775C1159.25,397.122 1159.42,397.642 1159.77,397.988C1160.12,398.335 1160.46,398.508 1160.98,398.508ZM1166.18,393.309C1166.7,393.309 1167.05,393.135 1167.39,392.789C1167.74,392.442 1167.91,391.922 1167.91,391.576C1167.91,391.229 1167.74,390.709 1167.39,390.363C1166.7,389.669 1165.66,389.669 1164.97,390.363C1164.62,390.709 1164.45,391.229 1164.45,391.576C1164.45,391.922 1164.62,392.442 1164.97,392.789C1165.31,393.135 1165.66,393.309 1166.18,393.309ZM1176.57,393.309C1177.09,393.309 1177.44,393.135 1177.79,392.789C1178.13,392.442 1178.31,392.096 1178.31,391.576C1178.31,391.229 1178.13,390.709 1177.79,390.363C1177.09,389.669 1176.05,389.669 1175.36,390.363C1175.01,390.709 1174.84,391.229 1174.84,391.576C1174.84,391.922 1175.01,392.442 1175.36,392.789C1175.71,393.135 1176.05,393.309 1176.57,393.309ZM1171.38,393.309C1171.89,393.309 1172.24,393.135 1172.59,392.789C1172.93,392.442 1173.11,392.096 1173.11,391.576C1173.11,391.229 1172.93,390.709 1172.59,390.363C1171.89,389.669 1170.86,389.669 1170.16,390.363C1169.82,390.709 1169.64,391.229 1169.64,391.576C1169.64,391.922 1169.82,392.442 1170.16,392.789C1170.51,393.135 1170.86,393.309 1171.38,393.309ZM1160.98,393.309C1161.5,393.309 1161.85,393.135 1162.19,392.789C1162.54,392.442 1162.71,391.922 1162.71,391.576C1162.71,391.229 1162.54,390.709 1162.19,390.363C1161.5,389.669 1160.46,389.669 1159.77,390.363C1159.42,390.709 1159.25,391.056 1159.25,391.576C1159.25,392.096 1159.42,392.442 1159.77,392.789C1160.12,393.135 1160.46,393.309 1160.98,393.309ZM1180.9,385.51L1180.9,382.91C1180.9,381.524 1179.69,380.311 1178.31,380.311L1174.84,380.311L1174.84,381.177C1174.84,381.697 1174.49,382.044 1173.97,382.044C1173.45,382.044 1173.11,381.697 1173.11,381.177L1173.11,380.311L1164.45,380.311L1164.45,381.177C1164.45,381.697 1164.1,382.044 1163.58,382.044C1163.06,382.044 1162.71,381.697 1162.71,381.177L1162.71,380.311L1159.25,380.311C1157.86,380.311 1156.65,381.524 1156.65,382.91L1156.65,385.51L1180.9,385.51Z" style="fill:white;"/>
    </g>
</svg>
